<?xml version="1.0" encoding="UTF-8" standalone="no"?>
<!DOCTYPE svg PUBLIC "-//W3C//DTD SVG 1.1//EN" "http://www.w3.org/Graphics/SVG/1.1/DTD/svg11.dtd">
<svg width="100%" height="100%" viewBox="0 0 1160 340" version="1.1" xmlns="http://www.w3.org/2000/svg" xmlns:xlink="http://www.w3.org/1999/xlink" xml:space="preserve" xmlns:serif="http://www.serif.com/" style="fill-rule:evenodd;clip-rule:evenodd;stroke-linejoin:round;stroke-miterlimit:2;">
    <g id="Border" transform="matrix(1.05775,0,0,0.903603,-36.8514,-203.721)">
        <rect x="34.839" y="225.455" width="1096.66" height="376.271" style="fill:white;fill-opacity:0;"/>
        <path d="M1131.5,225.455L34.839,225.455L34.839,601.726L1131.5,601.726L1131.5,225.455ZM1098.41,264.188L1098.41,562.992C1098.41,562.992 67.928,562.992 67.928,562.992C67.928,562.992 67.928,352.857 67.928,264.188C67.928,264.188 1098.41,264.188 1098.41,264.188L1098.41,264.188Z"/>
    </g>
    <g id="Text" transform="matrix(1,0,0,1,-220,-280)">
        <g transform="matrix(1.11223,0,0,0.698499,263.49,565)">
            <text id="FRMWRK" x="0px" y="0px" style="font-family:'Arial-Black', 'Arial Black', sans-serif;font-weight:900;font-size:200px;">F<tspan x="123.398px 268.965px 447.734px 637.734px 783.301px " y="0px 0px 0px 0px 0px ">RMWRK</tspan></text>
        </g>
        <g transform="matrix(1.07514,0,0,0.652323,634.461,438.286)">
            <text id="CHNO" x="0px" y="0px" style="font-family:'Arial-Black', 'Arial Black', sans-serif;font-weight:900;font-size:206.958px;">C<tspan x="150.63px 312.68px 474.729px " y="0px 0px 0px ">HNO</tspan></text>
        </g>
        <g id="E" transform="matrix(1.11765,0,0,0.685511,-69.1176,139.488)">
            <g transform="matrix(0.593667,0,0,2.03454,213.344,-138.215)">
                <rect x="415.479" y="265.768" width="286.356" height="17.634"/>
            </g>
            <g transform="matrix(0.593667,0,0,2.03454,213.344,-193.215)">
                <rect x="415.479" y="265.768" width="286.356" height="17.634"/>
            </g>
            <g transform="matrix(0.593667,0,0,2.03454,213.344,-248.215)">
                <rect x="415.479" y="265.768" width="286.356" height="17.634"/>
            </g>
        </g>
        <g transform="matrix(1.11411,0,0,0.698499,-114.238,225.36)">
            <text id="T" x="349.271px" y="307.288px" style="font-family:'Arial-Black', 'Arial Black', sans-serif;font-weight:900;font-size:200px;">T</text>
        </g>
    </g>
</svg>
